#!OML:ASF E:\Mandelcareful walks\Project 1\Capture day 1\Session 1\Subject1.ASF
:FULLY-SPECIFIED
:DEGREES
867
root 27.7717 16.76 1.32795 579.4 -84.1397 503.976
lowerback 10.0394 -0.770724 -8.63571
upperback 5.22768 -1.99061 -0.133016
thorax 0.142241 -1.26088 4.90435
lowerneck -22.482 -10.1722 -13.0522
upperneck 20.3507 -12.4881 10.1688
head 11.891 -5.47665 3.68877
rclavicle -2.69353e-014 3.06128e-014
rhumerus -29.5954 -0.839237 -81.1257
rradius 33.6269
rwrist -14.4827
rhand -11.0784 -28.2921
rfingers 7.12502
rthumb 14.945 -57.7329
lclavicle -2.69353e-014 3.06128e-014
lhumerus -26.3889 -0.0753682 85.0012
lradius 33.2942
lwrist 17.1258
lhand -24.823 -13.1303
lfingers 7.12502
lthumb 1.68255 16.8428
rfemur -27.8036 -7.33988 9.45177
rtibia 27.4889
rfoot -7.58771 -11.7818
rtoes 3.04248
lfemur -6.14855 5.59025 -25.7505
ltibia 26.9458
lfoot -23.7111 12.0618
ltoes 10.9594
868
root 27.6443 16.7732 1.30312 581.632 -84.1625 501.843
lowerback 9.68773 -0.921361 -8.60149
upperback 5.20211 -2.14678 -0.0935221
thorax 0.33161 -1.34334 4.9279
lowerneck -22.6102 -10.0024 -12.851
upperneck 20.5533 -12.2067 9.76494
head 11.9084 -5.3777 3.56023
rclavicle -1.49089e-014 3.39922e-014
rhumerus -29.8139 -1.35905 -80.7227
rradius 33.3152
rwrist -14.0605
rhand -11.1942 -28.1269
rfingers 7.12502
rthumb 14.8334 -57.576
lclavicle -1.49089e-014 3.39922e-014
lhumerus -26.3921 -0.58491 85.493
lradius 33.6416
lwrist 17.7838
lhand -24.7948 -12.2158
lfingers 7.12502
lthumb 1.70971 17.7571
rfemur -28.3991 -6.12444 8.89916
rtibia 25.848
rfoot -6.41163 -13.0489
rtoes 3.71141
lfemur -5.00519 5.36147 -25.8513
ltibia 25.4269
lfoot -23.3771 12.1929
ltoes 10.9955
869
root 27.5225 16.7817 1.27214 583.96 -83.9528 499.718
lowerback 9.31156 -0.998216 -8.75961
upperback 5.07557 -2.21954 -0.086035
thorax 0.424533 -1.37846 5.01956
lowerneck -22.5799 -9.84081 -12.7173
upperneck 20.8037 -11.9475 9.37772
head 11.9256 -5.29875 3.44844
rclavicle 2.52953e-014 3.77691e-015
rhumerus -30.2094 -1.79068 -80.3786
rradius 33.2332
rwrist -13.7935
rhand -11.289 -28.5759
rfingers 7.12502
rthumb 14.7421 -58.0317
lclavicle 2.52953e-014 3.77691e-015
lhumerus -26.6112 -1.04577 85.9848
lradius 34.2084
lwrist 18.3216
lhand -24.7159 -10.9487
lfingers 7.12502
lthumb 1.78598 19.0236
rfemur -29.1582 -4.41713 8.09859
rtibia 24.3552
rfoot -5.31654 -15.0381
rtoes 5.46098
lfemur -4.10145 5.0991 -26.133
ltibia 24.1006
lfoot -23.2242 12.5414
ltoes 10.9304
870
root 27.3901 16.7913 1.24091 584.917 -83.7221 498.99
lowerback 8.86728 -1.06736 -8.72954
upperback 4.91464 -2.25948 -0.0960896
thorax 0.504054 -1.39024 4.98254
lowerneck -22.366 -9.69113 -12.6735
upperneck 20.9652 -11.7236 9.10621
head 11.8954 -5.23625 3.39139
rclavicle -6.21202e-015 2.38542e-015
rhumerus -30.6248 -2.2431 -80.075
rradius 32.9911
rwrist -13.5157
rhand -11.3221 -29.127
rfingers 7.12502
rthumb 14.7102 -58.5851
lclavicle -6.21202e-015 2.38542e-015
lhumerus -27.0099 -1.19812 86.39
lradius 34.8147
lwrist 18.5418
lhand -24.5658 -10.0682
lfingers 7.12502
lthumb 1.93096 19.9028
rfemur -29.9271 -2.44774 7.23169
rtibia 23.2926
rfoot -4.92422 -17.0878
rtoes 3.87221
lfemur -3.1194 4.91701 -26.3473
ltibia 22.6958
lfoot -23.1019 13.034
ltoes 10.2057
871
root 27.2642 16.7931 1.2029 584.183 -83.8995 499.839
lowerback 8.75813 -1.12315 -8.15898
upperback 4.79438 -2.27674 -0.089914
thorax 0.4117 -1.37572 4.66912
lowerneck -22.2046 -9.6206 -12.479
upperneck 21.0914 -11.6535 8.83617
head 11.8711 -5.22835 3.27869
rclavicle 3.23025e-015 4.96962e-016
rhumerus -30.8891 -3.1888 -79.767
rradius 32.3839
rwrist -13.0115
rhand -11.1959 -28.627
rfingers 7.12502
rthumb 14.8317 -58.0761
lclavicle 3.23025e-015 4.96962e-016
lhumerus -27.1798 -1.70886 86.7392
lradius 35.1064
lwrist 18.6307
lhand -24.5827 -9.55399
lfingers 7.12502
lthumb 1.91459 20.4172
rfemur -30.445 0.805408 6.32061
rtibia 22.4233
rfoot -5.84055 -20.2142
rtoes 2.25004
lfemur -2.11848 4.71528 -26.052
ltibia 21.5103
lfoot -22.9805 13.3381
ltoes 9.37614
872
root 27.1043 16.7782 1.16266 592.16 -83.5072 491.63
lowerback 8.52097 -1.18934 -8.5317
upperback 4.83637 -2.3737 -0.417493
thorax 0.603875 -1.438 4.53152
lowerneck -22.0593 -9.53936 -12.2021
upperneck 21.2806 -11.5911 8.52956
head 11.8668 -5.22138 3.13782
rclavicle -6.4605e-015 2.74323e-014
rhumerus -31.3313 -4.1835 -79.4618
rradius 32.0722
rwrist -12.6015
rhand -10.9839 -28.2298
rfingers 7.12502
rthumb 15.036 -57.6638
lclavicle -6.4605e-015 2.74323e-014
lhumerus -27.3297 -2.43672 87.102
lradius 35.2776
lwrist 18.6478
lhand -24.7251 -9.00089
lfingers 7.12502
lthumb 1.77706 20.9715
rfemur -30.5126 1.99862 4.72267
rtibia 21.8664
rfoot -5.32878 -21.4786
rtoes -0.785697
lfemur -0.579868 4.45363 -26.9121
ltibia 20.2901
lfoot -22.9256 13.5356
ltoes 8.50761
873
root 26.9795 16.7688 1.1056 593.298 -83.5701 490.764
lowerback 8.31895 -1.25332 -8.38776
upperback 4.60862 -2.424 -0.322462
thorax 0.480829 -1.44292 4.55184
lowerneck -21.7967 -9.3854 -12.2178
upperneck 21.4359 -11.3728 8.35095
head 11.8392 -5.15704 3.12453
rclavicle -2.41026e-015 1.15295e-014
rhumerus -31.7169 -4.6474 -79.1366
rradius 31.7943
rwrist -12.3436
rhand -10.9564 -28.6241
rfingers 7.12502
rthumb 15.0625 -58.0561
lclavicle -2.41026e-015 1.15295e-014
lhumerus -27.551 -2.68771 87.5386
lradius 35.3365
lwrist 18.5668
lhand -24.6337 -8.68133
lfingers 7.12502
lthumb 1.86532 21.2903
rfemur -31.1264 3.92759 4.08864
rtibia 21.4534
rfoot -5.54353 -23.2452
rtoes 1.38415
lfemur 0.132012 4.23512 -26.7433
ltibia 19.2174
lfoot -22.6678 13.9581
ltoes 7.70182
874
root 26.8384 16.7559 1.05603 595.453 -83.3088 488.63
lowerback 8.16234 -1.29334 -8.52556
upperback 4.51502 -2.46974 -0.275968
thorax 0.485464 -1.4638 4.67677
lowerneck -21.8799 -9.32075 -12.2442
upperneck 21.828 -11.1956 7.97338
head 11.9598 -5.12446 3.02046
rclavicle -3.13396e-014 1.14177e-014
rhumerus -31.786 -5.05922 -78.7295
rradius 31.1762
rwrist -11.8718
rhand -10.9829 -28.677
rfingers 7.12502
rthumb 15.037 -58.1109
lclavicle -3.13396e-014 1.14177e-014
lhumerus -27.6764 -2.70229 88.0376
lradius 35.3595
lwrist 18.6317
lhand -24.3858 -8.76503
lfingers 7.12502
lthumb 2.10478 21.2043
rfemur -31.4533 3.20425 4.09189
rtibia 21.434
rfoot -4.33029 -22.9804
rtoes -0.982754
lfemur 1.31682 4.009 -26.9953
ltibia 17.8942
lfoot -22.5389 14.2995
ltoes 7.09318
875
root 26.702 16.7399 0.999214 596.046 -83.1902 488.016
lowerback 8.1643 -1.24606 -8.38584
upperback 4.48665 -2.397 -0.257295
thorax 0.437775 -1.42143 4.61438
lowerneck -21.7963 -9.25427 -12.1151
upperneck 21.8384 -11.0892 7.72994
head 11.91 -5.09897 2.93201
rclavicle 1.05294e-014 2.50717e-014
rhumerus -31.8901 -5.81068 -78.419
rradius 30.7349
rwrist -11.2748
rhand -10.9695 -28.4846
rfingers 7.12502
rthumb 15.0498 -57.9176
lclavicle 1.05294e-014 2.50717e-014
lhumerus -27.7789 -2.99317 88.4271
lradius 35.4814
lwrist 18.802
lhand -24.2147 -9.21113
lfingers 7.12502
lthumb 2.27004 20.7565
rfemur -31.5096 2.382 4.5095
rtibia 21.3121
rfoot -2.41761 -22.476
rtoes -3.09408
lfemur 2.37284 3.79205 -26.9776
ltibia 16.9114
lfoot -22.6626 14.5265
ltoes 6.68403
876
root 26.544 16.7088 0.947173 599.388 -82.8713 484.464
lowerback 8.05696 -1.24571 -8.31888
upperback 4.6067 -2.38378 -0.446124
thorax 0.608304 -1.42447 4.3715
lowerneck -21.8432 -9.24606 -11.8034
upperneck 21.8855 -11.0802 7.37
head 11.8901 -5.11171 2.74885
rclavicle 1.43373e-014 -2.17172e-014
rhumerus -31.9389 -6.62496 -78.2233
rradius 30.3489
rwrist -10.7299
rhand -10.9269 -28.7696
rfingers 7.12502
rthumb 15.0909 -58.1995
lclavicle 1.43373e-014 -2.17172e-014
lhumerus -27.871 -3.43341 88.7084
lradius 35.5877
lwrist 18.8676
lhand -24.0655 -9.82693
lfingers 7.12502
lthumb 2.41406 20.1392
rfemur -31.2317 0.0519872 4.99613
rtibia 21.5494
rfoot 0.406478 -20.4447
rtoes -2.96584
lfemur 3.84975 3.51908 -27.3886
ltibia 15.6891
lfoot -22.6368 14.871
ltoes 5.85783
877
root 26.4053 16.6762 0.88385 600.14 -82.8674 483.738
lowerback 8.03694 -1.26853 -7.94899
upperback 4.56001 -2.38521 -0.410791
thorax 0.553225 -1.41304 4.20217
lowerneck -21.7257 -9.17399 -11.7612
upperneck 21.9295 -10.9381 7.10472
head 11.8484 -5.08146 2.67401
rclavicle -1.23246e-014 -1.09332e-015
rhumerus -31.9386 -7.11577 -77.9778
rradius 29.9045
rwrist -10.3105
rhand -10.7139 -28.7309
rfingers 7.12502
rthumb 15.2961 -58.1453
lclavicle -1.23246e-014 -1.09332e-015
lhumerus -28.1078 -3.61644 89.0595
lradius 35.7653
lwrist 18.8087
lhand -24.0209 -9.81002
lfingers 7.12502
lthumb 2.45714 20.1556
rfemur -31.2077 -1.32 5.81577
rtibia 22.037
rfoot 2.47129 -18.6966
rtoes -3.45747
lfemur 4.95409 3.14138 -27.2827
ltibia 14.5238
lfoot -22.5693 15.3694
ltoes 5.29478
878
root 26.2403 16.6435 0.821254 603.447 -82.6924 480.359
lowerback 7.81566 -1.37589 -7.7824
upperback 4.58975 -2.49423 -0.453008
thorax 0.710029 -1.46999 4.06222
lowerneck -21.7257 -9.09258 -11.81
upperneck 22.0259 -10.7469 6.86458
head 11.8523 -5.03032 2.62846
rclavicle 3.27498e-014 -2.127e-014
rhumerus -31.9986 -7.34886 -77.7922
rradius 29.6749
rwrist -10.134
rhand -10.5674 -28.44
rfingers 7.12502
rthumb 15.4372 -57.8436
lclavicle 3.27498e-014 -2.127e-014
lhumerus -28.4115 -3.60962 89.3811
lradius 35.8349
lwrist 18.6905
lhand -23.7981 -10.8205
lfingers 7.12502
lthumb 2.6723 19.1425
rfemur -31.0417 -3.6223 6.54679
rtibia 22.8588
rfoot 4.00071 -15.2423
rtoes 3.35771
lfemur 6.32907 2.57583 -27.5189
ltibia 13.3221
lfoot -22.7455 15.6346
ltoes 5.45912
879
root 26.0769 16.608 0.754696 606.802 -82.4224 476.797
lowerback 7.83872 -1.43743 -7.69992
upperback 4.68296 -2.5738 -0.527285
thorax 0.796592 -1.51499 3.94179
lowerneck -21.8921 -9.0634 -11.6882
upperneck 22.0728 -10.6312 6.52683
head 11.8595 -5.00504 2.50026
rclavicle -2.36554e-014 4.96962e-015
rhumerus -31.9923 -7.51348 -77.7168
rradius 29.6242
rwrist -10.1509
rhand -10.6461 -28.2291
rfingers 7.12502
rthumb 15.3614 -57.6385
lclavicle -2.36554e-014 4.96962e-015
lhumerus -28.6352 -3.69371 89.647
lradius 35.9466
lwrist 18.7866
lhand -23.2824 -12.2752
lfingers 7.12502
lthumb 3.17038 17.681
rfemur -30.7794 -5.36208 6.98566
rtibia 23.8382
rfoot 3.67747 -12.331
rtoes 5.20618
lfemur 7.70211 2.08614 -27.8379
ltibia 12.3082
lfoot -22.6282 16.1359
ltoes 5.31858
